<svg width="25" height="7" viewBox="0 0 25 7" fill="none" xmlns="http://www.w3.org/2000/svg">
<path d="M3.74992 6.41658C2.94784 6.41658 2.2612 6.13099 1.69002 5.55981C1.11884 4.98863 0.833252 4.302 0.833252 3.49992C0.833252 2.69784 1.11884 2.0112 1.69002 1.44002C2.2612 0.868842 2.94784 0.583252 3.74992 0.583252C4.552 0.583252 5.23863 0.868842 5.80981 1.44002C6.38099 2.0112 6.66658 2.69784 6.66658 3.49992C6.66658 4.302 6.38099 4.98863 5.80981 5.55981C5.23863 6.13099 4.552 6.41658 3.74992 6.41658ZM12.4999 6.41658C11.6978 6.41658 11.0112 6.13099 10.44 5.55981C9.86884 4.98863 9.58325 4.302 9.58325 3.49992C9.58325 2.69784 9.86884 2.0112 10.44 1.44002C11.0112 0.868842 11.6978 0.583252 12.4999 0.583252C13.302 0.583252 13.9886 0.868842 14.5598 1.44002C15.131 2.0112 15.4166 2.69784 15.4166 3.49992C15.4166 4.302 15.131 4.98863 14.5598 5.55981C13.9886 6.13099 13.302 6.41658 12.4999 6.41658ZM21.2499 6.41658C20.4478 6.41658 19.7612 6.13099 19.19 5.55981C18.6188 4.98863 18.3333 4.302 18.3333 3.49992C18.3333 2.69784 18.6188 2.0112 19.19 1.44002C19.7612 0.868842 20.4478 0.583252 21.2499 0.583252C22.052 0.583252 22.7386 0.868842 23.3098 1.44002C23.881 2.0112 24.1666 2.69784 24.1666 3.49992C24.1666 4.302 23.881 4.98863 23.3098 5.55981C22.7386 6.13099 22.052 6.41658 21.2499 6.41658Z" fill="white"/>
</svg>
