<svg width="32" height="32" viewBox="0 0 32 32" fill="none" xmlns="http://www.w3.org/2000/svg">
<path d="M21.3334 10.667C23.4551 10.667 25.4899 11.5098 26.9902 13.0101C28.4905 14.5104 29.3334 16.5453 29.3334 18.667V28.0003H24V18.667C24 17.9597 23.7191 17.2815 23.219 16.7814C22.7189 16.2813 22.0406 16.0003 21.3334 16.0003C20.6261 16.0003 19.9478 16.2813 19.4477 16.7814C18.9476 17.2815 18.6667 17.9597 18.6667 18.667V28.0003H13.3334V18.667C13.3334 16.5453 14.1762 14.5104 15.6765 13.0101C17.1768 11.5098 19.2116 10.667 21.3334 10.667Z" stroke="#D9D9D9" stroke-width="2" stroke-linecap="round" stroke-linejoin="round"/>
<path d="M8.00002 12.0003H2.66669V28.0003H8.00002V12.0003Z" stroke="#D9D9D9" stroke-width="2" stroke-linecap="round" stroke-linejoin="round"/>
<path d="M5.33335 8.00033C6.80611 8.00033 8.00002 6.80642 8.00002 5.33366C8.00002 3.8609 6.80611 2.66699 5.33335 2.66699C3.86059 2.66699 2.66669 3.8609 2.66669 5.33366C2.66669 6.80642 3.86059 8.00033 5.33335 8.00033Z" stroke="#D9D9D9" stroke-width="2" stroke-linecap="round" stroke-linejoin="round"/>
</svg>
