<svg width="32" height="32" viewBox="0 0 32 32" fill="none" xmlns="http://www.w3.org/2000/svg">
<path d="M16 29.3337C15.6888 29.3337 15.4222 29.2448 15.2 29.067C14.9777 28.8892 14.8111 28.6559 14.7 28.367C14.2777 27.1225 13.7444 25.9559 13.1 24.867C12.4777 23.7781 11.6 22.5003 10.4666 21.0337C9.33329 19.567 8.41107 18.167 7.69996 16.8337C7.01107 15.5003 6.66663 13.8892 6.66663 12.0003C6.66663 9.40032 7.56663 7.20032 9.36663 5.40032C11.1888 3.5781 13.4 2.66699 16 2.66699C18.6 2.66699 20.8 3.5781 22.6 5.40032C24.4222 7.20032 25.3333 9.40032 25.3333 12.0003C25.3333 14.0225 24.9444 15.7114 24.1666 17.067C23.4111 18.4003 22.5333 19.7225 21.5333 21.0337C20.3333 22.6337 19.4222 23.967 18.8 25.0337C18.2 26.0781 17.7 27.1892 17.3 28.367C17.1888 28.6781 17.0111 28.9225 16.7666 29.1003C16.5444 29.2559 16.2888 29.3337 16 29.3337ZM16 24.567C16.3777 23.8114 16.8 23.067 17.2666 22.3337C17.7555 21.6003 18.4666 20.6225 19.4 19.4003C20.3555 18.1559 21.1333 17.0114 21.7333 15.967C22.3555 14.9003 22.6666 13.5781 22.6666 12.0003C22.6666 10.1559 22.0111 8.58921 20.7 7.30032C19.4111 5.98921 17.8444 5.33366 16 5.33366C14.1555 5.33366 12.5777 5.98921 11.2666 7.30032C9.97774 8.58921 9.33329 10.1559 9.33329 12.0003C9.33329 13.5781 9.63329 14.9003 10.2333 15.967C10.8555 17.0114 11.6444 18.1559 12.6 19.4003C13.5333 20.6225 14.2333 21.6003 14.7 22.3337C15.1888 23.067 15.6222 23.8114 16 24.567ZM16 15.3337C16.9333 15.3337 17.7222 15.0114 18.3666 14.367C19.0111 13.7225 19.3333 12.9337 19.3333 12.0003C19.3333 11.067 19.0111 10.2781 18.3666 9.63366C17.7222 8.98921 16.9333 8.66699 16 8.66699C15.0666 8.66699 14.2777 8.98921 13.6333 9.63366C12.9888 10.2781 12.6666 11.067 12.6666 12.0003C12.6666 12.9337 12.9888 13.7225 13.6333 14.367C14.2777 15.0114 15.0666 15.3337 16 15.3337Z" fill="#EFE8DE" fill-opacity="0.85"/>
</svg>
