<svg width="32" height="32" viewBox="0 0 32 32" fill="none" xmlns="http://www.w3.org/2000/svg">
<path d="M29.3333 16.0003C29.3333 23.3641 23.3638 29.3337 16 29.3337M29.3333 16.0003C29.3333 8.63653 23.3638 2.66699 16 2.66699M29.3333 16.0003H2.66663M16 29.3337C8.63616 29.3337 2.66663 23.3641 2.66663 16.0003M16 29.3337C19.335 25.6825 21.2303 20.9443 21.3333 16.0003C21.2303 11.0564 19.335 6.31813 16 2.66699M16 29.3337C12.6649 25.6825 10.7696 20.9443 10.6666 16.0003C10.7696 11.0564 12.6649 6.31813 16 2.66699M2.66663 16.0003C2.66663 8.63653 8.63616 2.66699 16 2.66699" stroke="#D9D9D9" stroke-width="2" stroke-linecap="round" stroke-linejoin="round"/>
</svg>
