<svg width="32" height="32" viewBox="0 0 32 32" fill="none" xmlns="http://www.w3.org/2000/svg">
<path d="M10.3001 23.9167L16.0001 18.2167L21.7001 23.9167L23.9167 21.7001L18.2167 16.0001L23.9167 10.3001L21.7001 8.08341L16.0001 13.7834L10.3001 8.08341L8.08341 10.3001L13.7834 16.0001L8.08341 21.7001L10.3001 23.9167ZM16.0001 31.8334C13.8098 31.8334 11.7515 31.4178 9.82508 30.5865C7.89869 29.7553 6.223 28.6272 4.798 27.2022C3.373 25.7772 2.24487 24.1015 1.41362 22.1751C0.582373 20.2487 0.166748 18.1904 0.166748 16.0001C0.166748 13.8098 0.582373 11.7515 1.41362 9.82508C2.24487 7.89869 3.373 6.223 4.798 4.798C6.223 3.373 7.89869 2.24487 9.82508 1.41362C11.7515 0.582373 13.8098 0.166748 16.0001 0.166748C18.1904 0.166748 20.2487 0.582373 22.1751 1.41362C24.1015 2.24487 25.7772 3.373 27.2022 4.798C28.6272 6.223 29.7553 7.89869 30.5865 9.82508C31.4178 11.7515 31.8334 13.8098 31.8334 16.0001C31.8334 18.1904 31.4178 20.2487 30.5865 22.1751C29.7553 24.1015 28.6272 25.7772 27.2022 27.2022C25.7772 28.6272 24.1015 29.7553 22.1751 30.5865C20.2487 31.4178 18.1904 31.8334 16.0001 31.8334ZM16.0001 28.6667C19.5362 28.6667 22.5313 27.4397 24.9855 24.9855C27.4397 22.5313 28.6667 19.5362 28.6667 16.0001C28.6667 12.464 27.4397 9.46883 24.9855 7.01466C22.5313 4.5605 19.5362 3.33341 16.0001 3.33341C12.464 3.33341 9.46883 4.5605 7.01466 7.01466C4.5605 9.46883 3.33341 12.464 3.33341 16.0001C3.33341 19.5362 4.5605 22.5313 7.01466 24.9855C9.46883 27.4397 12.464 28.6667 16.0001 28.6667Z" fill="#0058A3"/>
</svg>
